<svg id="customer_info" xmlns="http://www.w3.org/2000/svg" width="18" height="18" viewBox="0 0 18 18">
  <g id="streamline-icon-single-neutral-actions-information_16x16" data-name="streamline-icon-single-neutral-actions-information@16x16" transform="translate(1.5 1.5)">
    <path id="Path_436" data-name="Path 436" d="M4,.5a2,2,0,1,1-2,2A2,2,0,0,1,4,.5Z" transform="translate(-0.5 -0.5)" fill="none" stroke="#849a93" stroke-linecap="round" stroke-linejoin="round" stroke-width="1"/>
    <path id="Path_437" data-name="Path 437" d="M7.037,7.259A3.5,3.5,0,0,0,.5,9v1.5H2l.5,5h3l.215-2.155" transform="translate(-0.5 -0.5)" fill="none" stroke="#849a93" stroke-linecap="round" stroke-linejoin="round" stroke-width="1"/>
    <path id="Path_438" data-name="Path 438" d="M11.5,7.5a4,4,0,1,1-4,4A4,4,0,0,1,11.5,7.5Z" transform="translate(-0.5 -0.5)" fill="none" stroke="#849a93" stroke-linecap="round" stroke-linejoin="round" stroke-width="1"/>
    <path id="Path_439" data-name="Path 439" d="M11.5,13.5v-2" transform="translate(-0.5 -0.5)" fill="none" stroke="#849a93" stroke-linecap="round" stroke-linejoin="round" stroke-width="1"/>
    <path id="Path_440" data-name="Path 440" d="M11.5,9.54a.25.25,0,1,0,.25.25.25.25,0,0,0-.25-.25h0" transform="translate(-0.5 -0.5)" fill="none" stroke="#849a93" stroke-linecap="round" stroke-linejoin="round" stroke-width="1"/>
  </g>
  <rect id="Rectangle_101" data-name="Rectangle 101" width="18" height="18" fill="none"/>
</svg>
