<svg xmlns="http://www.w3.org/2000/svg" width="16.228" height="16.23" viewBox="0 0 16.228 16.23">
  <g id="streamline-icon-phone_16x16" data-name="streamline-icon-phone@16x16" transform="translate(0.124 0.098)">
    <path id="Path_418" data-name="Path 418" d="M10.027,14.927l.008,0a3.689,3.689,0,0,0,4.589-.5l.516-.516a1.23,1.23,0,0,0,0-1.739L12.966,10a1.23,1.23,0,0,0-1.739,0h0a1.229,1.229,0,0,1-1.737,0h0L6.009,6.521a1.23,1.23,0,0,1,0-1.739h0a1.229,1.229,0,0,0,0-1.737h0L3.836.867A1.23,1.23,0,0,0,2.1.867l-.516.516a3.69,3.69,0,0,0-.5,4.589l.005.008A33.289,33.289,0,0,0,10.027,14.927Z" fill="none" stroke="#849a93" stroke-linecap="round" stroke-linejoin="round" stroke-width="1"/>
  </g>
</svg>
